<mxfile host="app.diagrams.net" modified="2024-04-03T08:47:01.098Z" agent="Mozilla/5.0 (Macintosh; Intel Mac OS X 10_15_7) AppleWebKit/537.36 (KHTML, like Gecko) Chrome/123.0.0.0 Safari/537.36" etag="MROx_lBqBKED3qpScLnq" version="24.2.1" type="device">
  <diagram name="Page-1" id="74e2e168-ea6b-b213-b513-2b3c1d86103e">
    <mxGraphModel dx="2084" dy="625" grid="1" gridSize="10" guides="1" tooltips="1" connect="1" arrows="1" fold="1" page="1" pageScale="1" pageWidth="1100" pageHeight="850" background="none" math="0" shadow="0">
      <root>
        <mxCell id="0" />
        <mxCell id="1" parent="0" />
        <mxCell id="MA4rr7j_aGRy4AOu4dJ_-1" value="" style="ellipse;whiteSpace=wrap;html=1;" parent="1" vertex="1">
          <mxGeometry x="430" y="10" width="120" height="80" as="geometry" />
        </mxCell>
        <mxCell id="MA4rr7j_aGRy4AOu4dJ_-2" value="Open&amp;nbsp;&lt;div&gt;Application&lt;/div&gt;" style="text;html=1;align=center;verticalAlign=middle;whiteSpace=wrap;rounded=0;" parent="1" vertex="1">
          <mxGeometry x="460" y="35" width="60" height="30" as="geometry" />
        </mxCell>
        <mxCell id="MA4rr7j_aGRy4AOu4dJ_-3" value="" style="rhombus;whiteSpace=wrap;html=1;" parent="1" vertex="1">
          <mxGeometry x="430" y="140" width="120" height="80" as="geometry" />
        </mxCell>
        <mxCell id="MA4rr7j_aGRy4AOu4dJ_-4" value="Decision" style="text;html=1;align=center;verticalAlign=middle;whiteSpace=wrap;rounded=0;fontColor=#FF553B;" parent="1" vertex="1">
          <mxGeometry x="460" y="165" width="60" height="30" as="geometry" />
        </mxCell>
        <mxCell id="MA4rr7j_aGRy4AOu4dJ_-5" value="" style="endArrow=classic;html=1;rounded=0;exitX=0.5;exitY=1;exitDx=0;exitDy=0;entryX=0.5;entryY=0;entryDx=0;entryDy=0;" parent="1" source="MA4rr7j_aGRy4AOu4dJ_-1" target="MA4rr7j_aGRy4AOu4dJ_-3" edge="1">
          <mxGeometry width="50" height="50" relative="1" as="geometry">
            <mxPoint x="480" y="300" as="sourcePoint" />
            <mxPoint x="530" y="250" as="targetPoint" />
          </mxGeometry>
        </mxCell>
        <mxCell id="MA4rr7j_aGRy4AOu4dJ_-6" value="" style="rounded=1;whiteSpace=wrap;html=1;" parent="1" vertex="1">
          <mxGeometry x="120" y="240" width="120" height="60" as="geometry" />
        </mxCell>
        <mxCell id="MA4rr7j_aGRy4AOu4dJ_-7" value="Register" style="text;html=1;align=center;verticalAlign=middle;whiteSpace=wrap;rounded=0;" parent="1" vertex="1">
          <mxGeometry x="150" y="255" width="60" height="30" as="geometry" />
        </mxCell>
        <mxCell id="MA4rr7j_aGRy4AOu4dJ_-8" value="" style="endArrow=classic;html=1;rounded=0;exitX=0;exitY=0.5;exitDx=0;exitDy=0;entryX=0.5;entryY=0;entryDx=0;entryDy=0;" parent="1" source="MA4rr7j_aGRy4AOu4dJ_-3" target="MA4rr7j_aGRy4AOu4dJ_-6" edge="1">
          <mxGeometry width="50" height="50" relative="1" as="geometry">
            <mxPoint x="480" y="320" as="sourcePoint" />
            <mxPoint x="170" y="230" as="targetPoint" />
            <Array as="points">
              <mxPoint x="180" y="180" />
            </Array>
          </mxGeometry>
        </mxCell>
        <mxCell id="MA4rr7j_aGRy4AOu4dJ_-9" value="" style="rounded=1;whiteSpace=wrap;html=1;" parent="1" vertex="1">
          <mxGeometry x="430" y="240" width="120" height="60" as="geometry" />
        </mxCell>
        <mxCell id="MA4rr7j_aGRy4AOu4dJ_-10" value="Log in" style="text;html=1;align=center;verticalAlign=middle;whiteSpace=wrap;rounded=0;" parent="1" vertex="1">
          <mxGeometry x="460" y="255" width="60" height="30" as="geometry" />
        </mxCell>
        <mxCell id="MA4rr7j_aGRy4AOu4dJ_-11" value="" style="endArrow=classic;html=1;rounded=0;exitX=0.5;exitY=1;exitDx=0;exitDy=0;entryX=0.5;entryY=0;entryDx=0;entryDy=0;" parent="1" source="MA4rr7j_aGRy4AOu4dJ_-3" target="MA4rr7j_aGRy4AOu4dJ_-9" edge="1">
          <mxGeometry width="50" height="50" relative="1" as="geometry">
            <mxPoint x="480" y="350" as="sourcePoint" />
            <mxPoint x="530" y="300" as="targetPoint" />
          </mxGeometry>
        </mxCell>
        <mxCell id="MA4rr7j_aGRy4AOu4dJ_-12" value="" style="rounded=1;whiteSpace=wrap;html=1;" parent="1" vertex="1">
          <mxGeometry x="430" y="360" width="120" height="60" as="geometry" />
        </mxCell>
        <mxCell id="MA4rr7j_aGRy4AOu4dJ_-13" value="Enter Feed page" style="text;html=1;align=center;verticalAlign=middle;whiteSpace=wrap;rounded=0;" parent="1" vertex="1">
          <mxGeometry x="460" y="375" width="60" height="30" as="geometry" />
        </mxCell>
        <mxCell id="MA4rr7j_aGRy4AOu4dJ_-14" value="" style="endArrow=classic;html=1;rounded=0;exitX=0.5;exitY=1;exitDx=0;exitDy=0;entryX=0.5;entryY=0;entryDx=0;entryDy=0;" parent="1" source="MA4rr7j_aGRy4AOu4dJ_-9" target="MA4rr7j_aGRy4AOu4dJ_-12" edge="1">
          <mxGeometry width="50" height="50" relative="1" as="geometry">
            <mxPoint x="480" y="400" as="sourcePoint" />
            <mxPoint x="530" y="350" as="targetPoint" />
          </mxGeometry>
        </mxCell>
        <mxCell id="MA4rr7j_aGRy4AOu4dJ_-15" value="" style="rounded=1;whiteSpace=wrap;html=1;" parent="1" vertex="1">
          <mxGeometry x="430" y="480" width="120" height="60" as="geometry" />
        </mxCell>
        <mxCell id="MA4rr7j_aGRy4AOu4dJ_-16" value="Check posts" style="text;html=1;align=center;verticalAlign=middle;whiteSpace=wrap;rounded=0;" parent="1" vertex="1">
          <mxGeometry x="460" y="495" width="60" height="30" as="geometry" />
        </mxCell>
        <mxCell id="MA4rr7j_aGRy4AOu4dJ_-17" value="" style="endArrow=classic;html=1;rounded=0;exitX=0.5;exitY=1;exitDx=0;exitDy=0;entryX=0.5;entryY=0;entryDx=0;entryDy=0;" parent="1" source="MA4rr7j_aGRy4AOu4dJ_-12" target="MA4rr7j_aGRy4AOu4dJ_-15" edge="1">
          <mxGeometry width="50" height="50" relative="1" as="geometry">
            <mxPoint x="410" y="520" as="sourcePoint" />
            <mxPoint x="460" y="470" as="targetPoint" />
          </mxGeometry>
        </mxCell>
        <mxCell id="MA4rr7j_aGRy4AOu4dJ_-18" value="" style="endArrow=classic;html=1;rounded=0;exitX=0.5;exitY=1;exitDx=0;exitDy=0;entryX=0.5;entryY=0;entryDx=0;entryDy=0;" parent="1" source="MA4rr7j_aGRy4AOu4dJ_-15" edge="1" target="MA4rr7j_aGRy4AOu4dJ_-19">
          <mxGeometry width="50" height="50" relative="1" as="geometry">
            <mxPoint x="410" y="580" as="sourcePoint" />
            <mxPoint x="400" y="640" as="targetPoint" />
            <Array as="points">
              <mxPoint x="490" y="600" />
              <mxPoint x="370" y="600" />
              <mxPoint x="370" y="620" />
            </Array>
          </mxGeometry>
        </mxCell>
        <mxCell id="MA4rr7j_aGRy4AOu4dJ_-19" value="" style="rounded=1;whiteSpace=wrap;html=1;" parent="1" vertex="1">
          <mxGeometry x="310" y="640" width="120" height="60" as="geometry" />
        </mxCell>
        <mxCell id="MA4rr7j_aGRy4AOu4dJ_-21" value="" style="endArrow=classic;html=1;rounded=0;entryX=0.5;entryY=0;entryDx=0;entryDy=0;" parent="1" edge="1" target="MA4rr7j_aGRy4AOu4dJ_-24">
          <mxGeometry width="50" height="50" relative="1" as="geometry">
            <mxPoint x="490" y="600" as="sourcePoint" />
            <mxPoint x="570" y="640" as="targetPoint" />
            <Array as="points" />
          </mxGeometry>
        </mxCell>
        <mxCell id="MA4rr7j_aGRy4AOu4dJ_-23" value="Like post" style="text;html=1;align=center;verticalAlign=middle;whiteSpace=wrap;rounded=0;" parent="1" vertex="1">
          <mxGeometry x="340" y="655" width="60" height="30" as="geometry" />
        </mxCell>
        <mxCell id="MA4rr7j_aGRy4AOu4dJ_-24" value="" style="rounded=1;whiteSpace=wrap;html=1;" parent="1" vertex="1">
          <mxGeometry x="430" y="640" width="120" height="60" as="geometry" />
        </mxCell>
        <mxCell id="MA4rr7j_aGRy4AOu4dJ_-25" value="Comment post" style="text;html=1;align=center;verticalAlign=middle;whiteSpace=wrap;rounded=0;" parent="1" vertex="1">
          <mxGeometry x="460" y="655" width="60" height="30" as="geometry" />
        </mxCell>
        <mxCell id="MA4rr7j_aGRy4AOu4dJ_-27" value="" style="rounded=1;whiteSpace=wrap;html=1;" parent="1" vertex="1">
          <mxGeometry x="20" y="480" width="120" height="60" as="geometry" />
        </mxCell>
        <mxCell id="MA4rr7j_aGRy4AOu4dJ_-28" value="" style="endArrow=classic;html=1;rounded=0;exitX=0;exitY=0.5;exitDx=0;exitDy=0;entryX=0.5;entryY=0;entryDx=0;entryDy=0;" parent="1" source="MA4rr7j_aGRy4AOu4dJ_-12" target="MA4rr7j_aGRy4AOu4dJ_-27" edge="1">
          <mxGeometry width="50" height="50" relative="1" as="geometry">
            <mxPoint x="370" y="440" as="sourcePoint" />
            <mxPoint x="70" y="460" as="targetPoint" />
            <Array as="points">
              <mxPoint x="80" y="390" />
            </Array>
          </mxGeometry>
        </mxCell>
        <mxCell id="MA4rr7j_aGRy4AOu4dJ_-29" value="Personal profile" style="text;html=1;align=center;verticalAlign=middle;whiteSpace=wrap;rounded=0;" parent="1" vertex="1">
          <mxGeometry x="50" y="495" width="60" height="30" as="geometry" />
        </mxCell>
        <mxCell id="MA4rr7j_aGRy4AOu4dJ_-30" value="" style="rounded=1;whiteSpace=wrap;html=1;" parent="1" vertex="1">
          <mxGeometry x="140" y="640" width="120" height="60" as="geometry" />
        </mxCell>
        <mxCell id="MA4rr7j_aGRy4AOu4dJ_-31" value="" style="endArrow=classic;html=1;rounded=0;exitX=0.5;exitY=1;exitDx=0;exitDy=0;entryX=0.5;entryY=0;entryDx=0;entryDy=0;" parent="1" source="MA4rr7j_aGRy4AOu4dJ_-27" target="MA4rr7j_aGRy4AOu4dJ_-30" edge="1">
          <mxGeometry width="50" height="50" relative="1" as="geometry">
            <mxPoint x="230" y="610" as="sourcePoint" />
            <mxPoint x="280" y="560" as="targetPoint" />
            <Array as="points">
              <mxPoint x="80" y="600" />
              <mxPoint x="200" y="600" />
            </Array>
          </mxGeometry>
        </mxCell>
        <mxCell id="MA4rr7j_aGRy4AOu4dJ_-32" value="Change profile settings" style="text;html=1;align=center;verticalAlign=middle;whiteSpace=wrap;rounded=0;" parent="1" vertex="1">
          <mxGeometry x="170" y="655" width="60" height="30" as="geometry" />
        </mxCell>
        <mxCell id="MA4rr7j_aGRy4AOu4dJ_-33" value="" style="rounded=1;whiteSpace=wrap;html=1;" parent="1" vertex="1">
          <mxGeometry x="-100" y="640" width="120" height="60" as="geometry" />
        </mxCell>
        <mxCell id="MA4rr7j_aGRy4AOu4dJ_-34" value="" style="endArrow=classic;html=1;rounded=0;entryX=0.5;entryY=0;entryDx=0;entryDy=0;" parent="1" target="MA4rr7j_aGRy4AOu4dJ_-33" edge="1">
          <mxGeometry width="50" height="50" relative="1" as="geometry">
            <mxPoint x="80" y="600" as="sourcePoint" />
            <mxPoint x="120" y="560" as="targetPoint" />
            <Array as="points">
              <mxPoint x="-40" y="600" />
            </Array>
          </mxGeometry>
        </mxCell>
        <mxCell id="MA4rr7j_aGRy4AOu4dJ_-35" value="Connections" style="text;html=1;align=center;verticalAlign=middle;whiteSpace=wrap;rounded=0;" parent="1" vertex="1">
          <mxGeometry x="-70" y="655" width="60" height="30" as="geometry" />
        </mxCell>
        <mxCell id="MA4rr7j_aGRy4AOu4dJ_-36" value="" style="rounded=1;whiteSpace=wrap;html=1;" parent="1" vertex="1">
          <mxGeometry x="-200" y="770" width="120" height="60" as="geometry" />
        </mxCell>
        <mxCell id="MA4rr7j_aGRy4AOu4dJ_-37" value="Manage connections" style="text;html=1;align=center;verticalAlign=middle;whiteSpace=wrap;rounded=0;" parent="1" vertex="1">
          <mxGeometry x="-170" y="785" width="60" height="30" as="geometry" />
        </mxCell>
        <mxCell id="MA4rr7j_aGRy4AOu4dJ_-38" value="" style="endArrow=classic;html=1;rounded=0;exitX=0.5;exitY=1;exitDx=0;exitDy=0;entryX=0.5;entryY=0;entryDx=0;entryDy=0;" parent="1" source="MA4rr7j_aGRy4AOu4dJ_-33" target="MA4rr7j_aGRy4AOu4dJ_-36" edge="1">
          <mxGeometry width="50" height="50" relative="1" as="geometry">
            <mxPoint x="250" y="750" as="sourcePoint" />
            <mxPoint x="300" y="700" as="targetPoint" />
            <Array as="points">
              <mxPoint x="-40" y="720" />
              <mxPoint x="-140" y="720" />
            </Array>
          </mxGeometry>
        </mxCell>
        <mxCell id="MA4rr7j_aGRy4AOu4dJ_-40" value="" style="rounded=1;whiteSpace=wrap;html=1;" parent="1" vertex="1">
          <mxGeometry y="770" width="120" height="60" as="geometry" />
        </mxCell>
        <mxCell id="MA4rr7j_aGRy4AOu4dJ_-41" value="" style="endArrow=classic;html=1;rounded=0;entryX=0.5;entryY=0;entryDx=0;entryDy=0;" parent="1" target="MA4rr7j_aGRy4AOu4dJ_-40" edge="1">
          <mxGeometry width="50" height="50" relative="1" as="geometry">
            <mxPoint x="-40" y="720" as="sourcePoint" />
            <mxPoint x="300" y="670" as="targetPoint" />
            <Array as="points">
              <mxPoint x="60" y="720" />
            </Array>
          </mxGeometry>
        </mxCell>
        <mxCell id="MA4rr7j_aGRy4AOu4dJ_-42" value="Check connections&#39; profiles" style="text;html=1;align=center;verticalAlign=middle;whiteSpace=wrap;rounded=0;" parent="1" vertex="1">
          <mxGeometry x="30" y="785" width="60" height="30" as="geometry" />
        </mxCell>
        <mxCell id="MA4rr7j_aGRy4AOu4dJ_-43" value="" style="endArrow=classic;html=1;rounded=0;exitX=1;exitY=0.5;exitDx=0;exitDy=0;" parent="1" source="MA4rr7j_aGRy4AOu4dJ_-12" edge="1">
          <mxGeometry width="50" height="50" relative="1" as="geometry">
            <mxPoint x="470" y="510" as="sourcePoint" />
            <mxPoint x="900" y="480" as="targetPoint" />
            <Array as="points">
              <mxPoint x="900" y="390" />
            </Array>
          </mxGeometry>
        </mxCell>
        <mxCell id="MA4rr7j_aGRy4AOu4dJ_-44" value="" style="rounded=1;whiteSpace=wrap;html=1;" parent="1" vertex="1">
          <mxGeometry x="840" y="480" width="120" height="60" as="geometry" />
        </mxCell>
        <mxCell id="MA4rr7j_aGRy4AOu4dJ_-45" value="Direct messages" style="text;html=1;align=center;verticalAlign=middle;whiteSpace=wrap;rounded=0;" parent="1" vertex="1">
          <mxGeometry x="870" y="495" width="60" height="30" as="geometry" />
        </mxCell>
        <mxCell id="MA4rr7j_aGRy4AOu4dJ_-46" value="" style="rounded=1;whiteSpace=wrap;html=1;" parent="1" vertex="1">
          <mxGeometry x="720" y="640" width="120" height="60" as="geometry" />
        </mxCell>
        <mxCell id="MA4rr7j_aGRy4AOu4dJ_-47" value="" style="rounded=1;whiteSpace=wrap;html=1;" parent="1" vertex="1">
          <mxGeometry x="960" y="640" width="120" height="60" as="geometry" />
        </mxCell>
        <mxCell id="MA4rr7j_aGRy4AOu4dJ_-48" value="" style="endArrow=classic;html=1;rounded=0;entryX=0.5;entryY=0;entryDx=0;entryDy=0;exitX=0.5;exitY=1;exitDx=0;exitDy=0;" parent="1" source="MA4rr7j_aGRy4AOu4dJ_-44" target="MA4rr7j_aGRy4AOu4dJ_-46" edge="1">
          <mxGeometry width="50" height="50" relative="1" as="geometry">
            <mxPoint x="900" y="600" as="sourcePoint" />
            <mxPoint x="720" y="600" as="targetPoint" />
            <Array as="points">
              <mxPoint x="900" y="600" />
              <mxPoint x="780" y="600" />
            </Array>
          </mxGeometry>
        </mxCell>
        <mxCell id="MA4rr7j_aGRy4AOu4dJ_-49" value="" style="endArrow=classic;html=1;rounded=0;entryX=0.5;entryY=0;entryDx=0;entryDy=0;" parent="1" target="MA4rr7j_aGRy4AOu4dJ_-47" edge="1">
          <mxGeometry width="50" height="50" relative="1" as="geometry">
            <mxPoint x="900" y="600" as="sourcePoint" />
            <mxPoint x="720" y="600" as="targetPoint" />
            <Array as="points">
              <mxPoint x="1020" y="600" />
            </Array>
          </mxGeometry>
        </mxCell>
        <mxCell id="MA4rr7j_aGRy4AOu4dJ_-50" value="Start new chat" style="text;html=1;align=center;verticalAlign=middle;whiteSpace=wrap;rounded=0;" parent="1" vertex="1">
          <mxGeometry x="750" y="655" width="60" height="30" as="geometry" />
        </mxCell>
        <mxCell id="MA4rr7j_aGRy4AOu4dJ_-51" value="Enter private conversation" style="text;html=1;align=center;verticalAlign=middle;whiteSpace=wrap;rounded=0;" parent="1" vertex="1">
          <mxGeometry x="990" y="655" width="60" height="30" as="geometry" />
        </mxCell>
        <mxCell id="MA4rr7j_aGRy4AOu4dJ_-52" value="" style="rounded=1;whiteSpace=wrap;html=1;" parent="1" vertex="1">
          <mxGeometry x="960" y="785" width="120" height="60" as="geometry" />
        </mxCell>
        <mxCell id="MA4rr7j_aGRy4AOu4dJ_-53" value="Send message" style="text;html=1;align=center;verticalAlign=middle;whiteSpace=wrap;rounded=0;" parent="1" vertex="1">
          <mxGeometry x="990" y="800" width="60" height="30" as="geometry" />
        </mxCell>
        <mxCell id="MA4rr7j_aGRy4AOu4dJ_-54" value="" style="endArrow=classic;html=1;rounded=0;entryX=0.5;entryY=0;entryDx=0;entryDy=0;exitX=0.5;exitY=1;exitDx=0;exitDy=0;" parent="1" source="MA4rr7j_aGRy4AOu4dJ_-47" target="MA4rr7j_aGRy4AOu4dJ_-52" edge="1">
          <mxGeometry width="50" height="50" relative="1" as="geometry">
            <mxPoint x="660" y="720" as="sourcePoint" />
            <mxPoint x="710" y="670" as="targetPoint" />
          </mxGeometry>
        </mxCell>
        <mxCell id="MA4rr7j_aGRy4AOu4dJ_-56" value="" style="endArrow=classic;html=1;rounded=0;entryX=0;entryY=0.5;entryDx=0;entryDy=0;" parent="1" target="MA4rr7j_aGRy4AOu4dJ_-57" edge="1">
          <mxGeometry width="50" height="50" relative="1" as="geometry">
            <mxPoint x="900" y="390" as="sourcePoint" />
            <mxPoint x="1240" y="390" as="targetPoint" />
            <Array as="points" />
          </mxGeometry>
        </mxCell>
        <mxCell id="MA4rr7j_aGRy4AOu4dJ_-57" value="" style="rounded=1;whiteSpace=wrap;html=1;" parent="1" vertex="1">
          <mxGeometry x="1280" y="360" width="120" height="60" as="geometry" />
        </mxCell>
        <mxCell id="MA4rr7j_aGRy4AOu4dJ_-58" value="Check songs" style="text;html=1;align=center;verticalAlign=middle;whiteSpace=wrap;rounded=0;" parent="1" vertex="1">
          <mxGeometry x="1310" y="375" width="60" height="30" as="geometry" />
        </mxCell>
        <mxCell id="MA4rr7j_aGRy4AOu4dJ_-59" value="" style="endArrow=classic;html=1;rounded=0;exitX=1;exitY=0.5;exitDx=0;exitDy=0;" parent="1" source="MA4rr7j_aGRy4AOu4dJ_-27" edge="1">
          <mxGeometry width="50" height="50" relative="1" as="geometry">
            <mxPoint x="180" y="590" as="sourcePoint" />
            <mxPoint x="300" y="770" as="targetPoint" />
            <Array as="points">
              <mxPoint x="300" y="510" />
            </Array>
          </mxGeometry>
        </mxCell>
        <mxCell id="MA4rr7j_aGRy4AOu4dJ_-60" value="" style="rounded=1;whiteSpace=wrap;html=1;" parent="1" vertex="1">
          <mxGeometry x="240" y="770" width="120" height="60" as="geometry" />
        </mxCell>
        <mxCell id="MA4rr7j_aGRy4AOu4dJ_-61" value="Playlists" style="text;html=1;align=center;verticalAlign=middle;whiteSpace=wrap;rounded=0;" parent="1" vertex="1">
          <mxGeometry x="270" y="785" width="60" height="30" as="geometry" />
        </mxCell>
        <mxCell id="MA4rr7j_aGRy4AOu4dJ_-62" value="" style="endArrow=classic;html=1;rounded=0;exitX=0.5;exitY=1;exitDx=0;exitDy=0;" parent="1" source="MA4rr7j_aGRy4AOu4dJ_-60" edge="1">
          <mxGeometry width="50" height="50" relative="1" as="geometry">
            <mxPoint x="180" y="840" as="sourcePoint" />
            <mxPoint x="200" y="920" as="targetPoint" />
            <Array as="points">
              <mxPoint x="300" y="880" />
              <mxPoint x="200" y="880" />
            </Array>
          </mxGeometry>
        </mxCell>
        <mxCell id="MA4rr7j_aGRy4AOu4dJ_-63" value="" style="rounded=1;whiteSpace=wrap;html=1;" parent="1" vertex="1">
          <mxGeometry x="140" y="920" width="120" height="60" as="geometry" />
        </mxCell>
        <mxCell id="MA4rr7j_aGRy4AOu4dJ_-64" value="Check playlist" style="text;html=1;align=center;verticalAlign=middle;whiteSpace=wrap;rounded=0;" parent="1" vertex="1">
          <mxGeometry x="170" y="935" width="60" height="30" as="geometry" />
        </mxCell>
        <mxCell id="MA4rr7j_aGRy4AOu4dJ_-65" value="" style="endArrow=classic;html=1;rounded=0;" parent="1" edge="1">
          <mxGeometry width="50" height="50" relative="1" as="geometry">
            <mxPoint x="300" y="880" as="sourcePoint" />
            <mxPoint x="400" y="920" as="targetPoint" />
            <Array as="points">
              <mxPoint x="400" y="880" />
            </Array>
          </mxGeometry>
        </mxCell>
        <mxCell id="MA4rr7j_aGRy4AOu4dJ_-66" value="" style="rounded=1;whiteSpace=wrap;html=1;" parent="1" vertex="1">
          <mxGeometry x="340" y="920" width="120" height="60" as="geometry" />
        </mxCell>
        <mxCell id="MA4rr7j_aGRy4AOu4dJ_-67" value="Manage playlists" style="text;html=1;align=center;verticalAlign=middle;whiteSpace=wrap;rounded=0;" parent="1" vertex="1">
          <mxGeometry x="370" y="935" width="60" height="30" as="geometry" />
        </mxCell>
        <mxCell id="MA4rr7j_aGRy4AOu4dJ_-68" value="" style="rounded=1;whiteSpace=wrap;html=1;" parent="1" vertex="1">
          <mxGeometry x="1120" y="640" width="120" height="60" as="geometry" />
        </mxCell>
        <mxCell id="MA4rr7j_aGRy4AOu4dJ_-69" value="" style="rounded=1;whiteSpace=wrap;html=1;" parent="1" vertex="1">
          <mxGeometry x="1280" y="640" width="120" height="60" as="geometry" />
        </mxCell>
        <mxCell id="MA4rr7j_aGRy4AOu4dJ_-70" value="" style="rounded=1;whiteSpace=wrap;html=1;" parent="1" vertex="1">
          <mxGeometry x="1440" y="640" width="120" height="60" as="geometry" />
        </mxCell>
        <mxCell id="MA4rr7j_aGRy4AOu4dJ_-71" value="" style="endArrow=classic;html=1;rounded=0;entryX=0.5;entryY=0;entryDx=0;entryDy=0;" parent="1" target="MA4rr7j_aGRy4AOu4dJ_-68" edge="1">
          <mxGeometry width="50" height="50" relative="1" as="geometry">
            <mxPoint x="1340" y="600" as="sourcePoint" />
            <mxPoint x="1260" y="550" as="targetPoint" />
            <Array as="points">
              <mxPoint x="1180" y="600" />
            </Array>
          </mxGeometry>
        </mxCell>
        <mxCell id="MA4rr7j_aGRy4AOu4dJ_-72" value="" style="endArrow=classic;html=1;rounded=0;entryX=0.5;entryY=0;entryDx=0;entryDy=0;" parent="1" target="MA4rr7j_aGRy4AOu4dJ_-69" edge="1">
          <mxGeometry width="50" height="50" relative="1" as="geometry">
            <mxPoint x="1340" y="600" as="sourcePoint" />
            <mxPoint x="1260" y="550" as="targetPoint" />
          </mxGeometry>
        </mxCell>
        <mxCell id="MA4rr7j_aGRy4AOu4dJ_-73" value="" style="endArrow=classic;html=1;rounded=0;entryX=0.5;entryY=0;entryDx=0;entryDy=0;" parent="1" target="MA4rr7j_aGRy4AOu4dJ_-70" edge="1">
          <mxGeometry width="50" height="50" relative="1" as="geometry">
            <mxPoint x="1340" y="510" as="sourcePoint" />
            <mxPoint x="1260" y="550" as="targetPoint" />
            <Array as="points">
              <mxPoint x="1340" y="600" />
              <mxPoint x="1500" y="600" />
            </Array>
          </mxGeometry>
        </mxCell>
        <mxCell id="MA4rr7j_aGRy4AOu4dJ_-74" value="Listen to preview" style="text;html=1;align=center;verticalAlign=middle;whiteSpace=wrap;rounded=0;" parent="1" vertex="1">
          <mxGeometry x="1150" y="655" width="60" height="30" as="geometry" />
        </mxCell>
        <mxCell id="MA4rr7j_aGRy4AOu4dJ_-75" value="Add to playlist" style="text;html=1;align=center;verticalAlign=middle;whiteSpace=wrap;rounded=0;" parent="1" vertex="1">
          <mxGeometry x="1310" y="655" width="60" height="30" as="geometry" />
        </mxCell>
        <mxCell id="MA4rr7j_aGRy4AOu4dJ_-76" value="Add rating" style="text;html=1;align=center;verticalAlign=middle;whiteSpace=wrap;rounded=0;" parent="1" vertex="1">
          <mxGeometry x="1470" y="655" width="60" height="30" as="geometry" />
        </mxCell>
        <mxCell id="MA4rr7j_aGRy4AOu4dJ_-77" value="" style="rounded=1;whiteSpace=wrap;html=1;" parent="1" vertex="1">
          <mxGeometry x="1280" y="480" width="120" height="60" as="geometry" />
        </mxCell>
        <mxCell id="MA4rr7j_aGRy4AOu4dJ_-78" value="Search song" style="text;html=1;align=center;verticalAlign=middle;whiteSpace=wrap;rounded=0;" parent="1" vertex="1">
          <mxGeometry x="1310" y="495" width="60" height="30" as="geometry" />
        </mxCell>
        <mxCell id="MA4rr7j_aGRy4AOu4dJ_-84" value="" style="endArrow=classic;html=1;rounded=0;entryX=0.5;entryY=0;entryDx=0;entryDy=0;exitX=0.5;exitY=1;exitDx=0;exitDy=0;" parent="1" source="MA4rr7j_aGRy4AOu4dJ_-57" target="MA4rr7j_aGRy4AOu4dJ_-77" edge="1">
          <mxGeometry width="50" height="50" relative="1" as="geometry">
            <mxPoint x="1320" y="630" as="sourcePoint" />
            <mxPoint x="1370" y="580" as="targetPoint" />
          </mxGeometry>
        </mxCell>
        <mxCell id="139jftuZz5DdwLAz874n-1" value="" style="endArrow=classic;html=1;rounded=0;exitX=1;exitY=0.5;exitDx=0;exitDy=0;" edge="1" parent="1" source="MA4rr7j_aGRy4AOu4dJ_-77">
          <mxGeometry width="50" height="50" relative="1" as="geometry">
            <mxPoint x="1480" y="670" as="sourcePoint" />
            <mxPoint x="1680" y="640" as="targetPoint" />
            <Array as="points">
              <mxPoint x="1680" y="510" />
            </Array>
          </mxGeometry>
        </mxCell>
        <mxCell id="139jftuZz5DdwLAz874n-2" value="" style="rounded=1;whiteSpace=wrap;html=1;" vertex="1" parent="1">
          <mxGeometry x="1620" y="640" width="120" height="60" as="geometry" />
        </mxCell>
        <mxCell id="139jftuZz5DdwLAz874n-3" value="Share" style="text;html=1;align=center;verticalAlign=middle;whiteSpace=wrap;rounded=0;" vertex="1" parent="1">
          <mxGeometry x="1650" y="655" width="60" height="30" as="geometry" />
        </mxCell>
        <mxCell id="139jftuZz5DdwLAz874n-4" value="" style="rhombus;whiteSpace=wrap;html=1;" vertex="1" parent="1">
          <mxGeometry x="1620" y="735" width="120" height="80" as="geometry" />
        </mxCell>
        <mxCell id="139jftuZz5DdwLAz874n-5" value="&lt;font color=&quot;#ff0000&quot;&gt;Decision&lt;/font&gt;" style="text;html=1;align=center;verticalAlign=middle;whiteSpace=wrap;rounded=0;" vertex="1" parent="1">
          <mxGeometry x="1650" y="760" width="60" height="30" as="geometry" />
        </mxCell>
        <mxCell id="139jftuZz5DdwLAz874n-6" value="" style="endArrow=classic;html=1;rounded=0;exitX=0.5;exitY=1;exitDx=0;exitDy=0;entryX=0.5;entryY=0;entryDx=0;entryDy=0;" edge="1" parent="1" source="139jftuZz5DdwLAz874n-2" target="139jftuZz5DdwLAz874n-4">
          <mxGeometry width="50" height="50" relative="1" as="geometry">
            <mxPoint x="1480" y="850" as="sourcePoint" />
            <mxPoint x="1530" y="800" as="targetPoint" />
          </mxGeometry>
        </mxCell>
        <mxCell id="139jftuZz5DdwLAz874n-7" value="" style="endArrow=classic;html=1;rounded=0;exitX=1;exitY=0.5;exitDx=0;exitDy=0;" edge="1" parent="1" source="139jftuZz5DdwLAz874n-4">
          <mxGeometry width="50" height="50" relative="1" as="geometry">
            <mxPoint x="1530" y="820" as="sourcePoint" />
            <mxPoint x="1880" y="880" as="targetPoint" />
            <Array as="points">
              <mxPoint x="1880" y="775" />
            </Array>
          </mxGeometry>
        </mxCell>
        <mxCell id="139jftuZz5DdwLAz874n-8" value="" style="endArrow=classic;html=1;rounded=0;exitX=0;exitY=0.5;exitDx=0;exitDy=0;" edge="1" parent="1" source="139jftuZz5DdwLAz874n-4">
          <mxGeometry width="50" height="50" relative="1" as="geometry">
            <mxPoint x="1530" y="820" as="sourcePoint" />
            <mxPoint x="1480" y="880" as="targetPoint" />
            <Array as="points">
              <mxPoint x="1480" y="775" />
            </Array>
          </mxGeometry>
        </mxCell>
        <mxCell id="139jftuZz5DdwLAz874n-9" value="" style="rounded=1;whiteSpace=wrap;html=1;" vertex="1" parent="1">
          <mxGeometry x="1420" y="880" width="120" height="60" as="geometry" />
        </mxCell>
        <mxCell id="139jftuZz5DdwLAz874n-10" value="Direct messages" style="text;html=1;align=center;verticalAlign=middle;whiteSpace=wrap;rounded=0;" vertex="1" parent="1">
          <mxGeometry x="1450" y="895" width="60" height="30" as="geometry" />
        </mxCell>
        <mxCell id="139jftuZz5DdwLAz874n-11" value="" style="rounded=1;whiteSpace=wrap;html=1;" vertex="1" parent="1">
          <mxGeometry x="1820" y="880" width="120" height="60" as="geometry" />
        </mxCell>
        <mxCell id="139jftuZz5DdwLAz874n-12" value="Post" style="text;html=1;align=center;verticalAlign=middle;whiteSpace=wrap;rounded=0;" vertex="1" parent="1">
          <mxGeometry x="1850" y="895" width="60" height="30" as="geometry" />
        </mxCell>
        <mxCell id="139jftuZz5DdwLAz874n-13" value="" style="rounded=1;whiteSpace=wrap;html=1;" vertex="1" parent="1">
          <mxGeometry x="1420" y="990" width="120" height="60" as="geometry" />
        </mxCell>
        <mxCell id="139jftuZz5DdwLAz874n-14" value="" style="endArrow=classic;html=1;rounded=0;exitX=0.5;exitY=1;exitDx=0;exitDy=0;entryX=0.5;entryY=0;entryDx=0;entryDy=0;" edge="1" parent="1" source="139jftuZz5DdwLAz874n-9" target="139jftuZz5DdwLAz874n-13">
          <mxGeometry width="50" height="50" relative="1" as="geometry">
            <mxPoint x="1470" y="900" as="sourcePoint" />
            <mxPoint x="1520" y="850" as="targetPoint" />
          </mxGeometry>
        </mxCell>
        <mxCell id="139jftuZz5DdwLAz874n-15" value="Choose friend" style="text;html=1;align=center;verticalAlign=middle;whiteSpace=wrap;rounded=0;" vertex="1" parent="1">
          <mxGeometry x="1450" y="1005" width="60" height="30" as="geometry" />
        </mxCell>
        <mxCell id="139jftuZz5DdwLAz874n-16" value="" style="endArrow=classic;html=1;rounded=0;entryX=0.5;entryY=0;entryDx=0;entryDy=0;" edge="1" parent="1" target="139jftuZz5DdwLAz874n-17">
          <mxGeometry width="50" height="50" relative="1" as="geometry">
            <mxPoint x="490" y="600" as="sourcePoint" />
            <mxPoint x="650" y="660" as="targetPoint" />
            <Array as="points">
              <mxPoint x="610" y="600" />
            </Array>
          </mxGeometry>
        </mxCell>
        <mxCell id="139jftuZz5DdwLAz874n-17" value="" style="rounded=1;whiteSpace=wrap;html=1;" vertex="1" parent="1">
          <mxGeometry x="550" y="640" width="120" height="60" as="geometry" />
        </mxCell>
        <mxCell id="139jftuZz5DdwLAz874n-18" value="Add post" style="text;html=1;align=center;verticalAlign=middle;whiteSpace=wrap;rounded=0;" vertex="1" parent="1">
          <mxGeometry x="580" y="655" width="60" height="30" as="geometry" />
        </mxCell>
        <mxCell id="139jftuZz5DdwLAz874n-19" value="" style="rounded=1;whiteSpace=wrap;html=1;" vertex="1" parent="1">
          <mxGeometry x="460" y="770" width="120" height="60" as="geometry" />
        </mxCell>
        <mxCell id="139jftuZz5DdwLAz874n-20" value="" style="rounded=1;whiteSpace=wrap;html=1;" vertex="1" parent="1">
          <mxGeometry x="640" y="770" width="120" height="60" as="geometry" />
        </mxCell>
        <mxCell id="139jftuZz5DdwLAz874n-21" value="" style="endArrow=classic;html=1;rounded=0;entryX=1;entryY=0.5;entryDx=0;entryDy=0;exitX=0.5;exitY=1;exitDx=0;exitDy=0;" edge="1" parent="1" source="139jftuZz5DdwLAz874n-17" target="139jftuZz5DdwLAz874n-19">
          <mxGeometry width="50" height="50" relative="1" as="geometry">
            <mxPoint x="610" y="800" as="sourcePoint" />
            <mxPoint x="650" y="690" as="targetPoint" />
            <Array as="points">
              <mxPoint x="610" y="800" />
            </Array>
          </mxGeometry>
        </mxCell>
        <mxCell id="139jftuZz5DdwLAz874n-22" value="" style="endArrow=classic;html=1;rounded=0;entryX=0;entryY=0.5;entryDx=0;entryDy=0;" edge="1" parent="1" target="139jftuZz5DdwLAz874n-20">
          <mxGeometry width="50" height="50" relative="1" as="geometry">
            <mxPoint x="610" y="800" as="sourcePoint" />
            <mxPoint x="650" y="690" as="targetPoint" />
          </mxGeometry>
        </mxCell>
        <mxCell id="139jftuZz5DdwLAz874n-23" value="Add content" style="text;html=1;align=center;verticalAlign=middle;whiteSpace=wrap;rounded=0;" vertex="1" parent="1">
          <mxGeometry x="490" y="785" width="60" height="30" as="geometry" />
        </mxCell>
        <mxCell id="139jftuZz5DdwLAz874n-24" value="Add song" style="text;html=1;align=center;verticalAlign=middle;whiteSpace=wrap;rounded=0;" vertex="1" parent="1">
          <mxGeometry x="670" y="785" width="60" height="30" as="geometry" />
        </mxCell>
        <mxCell id="139jftuZz5DdwLAz874n-25" value="" style="endArrow=classic;html=1;rounded=0;exitX=0;exitY=1;exitDx=0;exitDy=0;" edge="1" parent="1" source="MA4rr7j_aGRy4AOu4dJ_-36">
          <mxGeometry width="50" height="50" relative="1" as="geometry">
            <mxPoint x="-200" y="870" as="sourcePoint" />
            <mxPoint x="940" y="1280" as="targetPoint" />
            <Array as="points">
              <mxPoint x="-200" y="1080" />
              <mxPoint x="940" y="1080" />
            </Array>
          </mxGeometry>
        </mxCell>
        <mxCell id="139jftuZz5DdwLAz874n-27" value="" style="endArrow=none;html=1;rounded=0;entryX=1;entryY=1;entryDx=0;entryDy=0;" edge="1" parent="1" target="139jftuZz5DdwLAz874n-11">
          <mxGeometry width="50" height="50" relative="1" as="geometry">
            <mxPoint x="940" y="1080" as="sourcePoint" />
            <mxPoint x="1390" y="960" as="targetPoint" />
            <Array as="points">
              <mxPoint x="1940" y="1080" />
            </Array>
          </mxGeometry>
        </mxCell>
        <mxCell id="139jftuZz5DdwLAz874n-28" value="" style="rounded=1;whiteSpace=wrap;html=1;" vertex="1" parent="1">
          <mxGeometry x="880" y="1275" width="120" height="60" as="geometry" />
        </mxCell>
        <mxCell id="139jftuZz5DdwLAz874n-29" value="&lt;font color=&quot;#ff0000&quot;&gt;Back to feed&lt;/font&gt;" style="text;html=1;align=center;verticalAlign=middle;whiteSpace=wrap;rounded=0;" vertex="1" parent="1">
          <mxGeometry x="910" y="1290" width="60" height="30" as="geometry" />
        </mxCell>
      </root>
    </mxGraphModel>
  </diagram>
</mxfile>
